<?xml version="1.0" encoding="UTF-8" standalone="no"?>
<!-- Created with Bouml (http://bouml.free.fr/) -->
<!DOCTYPE svg PUBLIC "-//W3C//DTD SVG 1.1//EN" "http://www.w3.org/Graphics/SVG/1.1/DTD/svg11.dtd">
<svg width="582" height="296" version="1.1" xmlns="http://www.w3.org/2000/svg">
<g>
	<rect fill="#808080" stroke="none" stroke-opacity="1" x="112" y="239" width="3" height="41" />
	<rect fill="#808080" stroke="none" stroke-opacity="1" x="20" y="277" width="95" height="3" />
	<rect fill="#ffffc0" stroke="black" stroke-width="1" stroke-opacity="1" x="16" y="235" width="96" height="42" />
	<text font-family="Helvetica" font-size="13" fill="#000000" xml:space="preserve" font-weight="bold" text-anchor="middle" x="64" y="250">CreateUser</text>
	<line stroke="black" stroke-opacity="1" x1="16" y1="262" x2="112" y2="262" />
	<line stroke="black" stroke-opacity="1" x1="16" y1="270" x2="112" y2="270" />
</g>
<g>
	<rect fill="#808080" stroke="none" stroke-opacity="1" x="461" y="242" width="3" height="41" />
	<rect fill="#808080" stroke="none" stroke-opacity="1" x="377" y="280" width="87" height="3" />
	<rect fill="#ffffc0" stroke="black" stroke-width="1" stroke-opacity="1" x="373" y="238" width="88" height="42" />
	<text font-family="Helvetica" font-size="13" fill="#000000" xml:space="preserve" font-weight="bold" text-anchor="middle" x="417" y="253">SignEvent</text>
	<line stroke="black" stroke-opacity="1" x1="373" y1="265" x2="461" y2="265" />
	<line stroke="black" stroke-opacity="1" x1="373" y1="273" x2="461" y2="273" />
</g>
<g>
	<rect fill="#808080" stroke="none" stroke-opacity="1" x="352" y="239" width="3" height="43" />
	<rect fill="#808080" stroke="none" stroke-opacity="1" x="304" y="279" width="51" height="3" />
	<rect fill="#ffffc0" stroke="black" stroke-width="1" stroke-opacity="1" x="300" y="235" width="52" height="44" />
	<text font-family="Helvetica" font-size="13" fill="#000000" xml:space="preserve" font-weight="bold" text-anchor="middle" x="326" y="250">Login</text>
	<line stroke="black" stroke-opacity="1" x1="300" y1="262" x2="352" y2="262" />
	<line stroke="black" stroke-opacity="1" x1="300" y1="270" x2="352" y2="270" />
</g>
<g>
	<rect fill="#808080" stroke="none" stroke-opacity="1" x="566" y="240" width="3" height="41" />
	<rect fill="#808080" stroke="none" stroke-opacity="1" x="488" y="278" width="81" height="3" />
	<rect fill="#ffffc0" stroke="black" stroke-width="1" stroke-opacity="1" x="484" y="236" width="82" height="42" />
	<text font-family="Helvetica" font-size="13" fill="#000000" xml:space="preserve" font-weight="bold" text-anchor="middle" x="525" y="251">OutEvent</text>
	<line stroke="black" stroke-opacity="1" x1="484" y1="263" x2="566" y2="263" />
	<line stroke="black" stroke-opacity="1" x1="484" y1="271" x2="566" y2="271" />
</g>
<g>
	<rect fill="#808080" stroke="none" stroke-opacity="1" x="335" y="64" width="3" height="41" />
	<rect fill="#808080" stroke="none" stroke-opacity="1" x="241" y="102" width="97" height="3" />
	<rect fill="#ffffc0" stroke="black" stroke-width="1" stroke-opacity="1" x="237" y="60" width="98" height="42" />
	<text font-family="Helvetica" font-size="13" fill="#000000" xml:space="preserve" font-weight="bold" text-anchor="middle" x="286" y="75">HttpServlet</text>
	<line stroke="black" stroke-opacity="1" x1="237" y1="87" x2="335" y2="87" />
	<line stroke="black" stroke-opacity="1" x1="237" y1="95" x2="335" y2="95" />
</g>
<g>
	<line stroke="black" stroke-opacity="1" x1="93" y1="234" x2="249" y2="109" />
	<line stroke="black" stroke-opacity="1" x1="254" y1="106" x2="245" y2="105" />
	<line stroke="black" stroke-opacity="1" x1="254" y1="106" x2="253" y2="114" />
	<line stroke="black" stroke-opacity="1" x1="245" y1="105" x2="253" y2="114" />
</g>
<g>
	<line stroke="black" stroke-opacity="1" x1="401" y1="237" x2="308" y2="110" />
	<line stroke="black" stroke-opacity="1" x1="305" y1="106" x2="303" y2="114" />
	<line stroke="black" stroke-opacity="1" x1="305" y1="106" x2="313" y2="107" />
	<line stroke="black" stroke-opacity="1" x1="303" y1="114" x2="313" y2="107" />
</g>
<g>
	<line stroke="black" stroke-opacity="1" x1="322" y1="234" x2="294" y2="111" />
	<line stroke="black" stroke-opacity="1" x1="293" y1="106" x2="288" y2="113" />
	<line stroke="black" stroke-opacity="1" x1="293" y1="106" x2="300" y2="110" />
	<line stroke="black" stroke-opacity="1" x1="288" y1="113" x2="300" y2="110" />
</g>
<g>
	<line stroke="black" stroke-opacity="1" x1="495" y1="235" x2="323" y2="109" />
	<line stroke="black" stroke-opacity="1" x1="319" y1="106" x2="320" y2="114" />
	<line stroke="black" stroke-opacity="1" x1="319" y1="106" x2="327" y2="104" />
	<line stroke="black" stroke-opacity="1" x1="320" y1="114" x2="327" y2="104" />
</g>
<g>
	<rect fill="#808080" stroke="none" stroke-opacity="1" x="258" y="239" width="3" height="41" />
	<rect fill="#808080" stroke="none" stroke-opacity="1" x="158" y="277" width="103" height="3" />
	<rect fill="#ffffc0" stroke="black" stroke-width="1" stroke-opacity="1" x="154" y="235" width="104" height="42" />
	<text font-family="Helvetica" font-size="13" fill="#000000" xml:space="preserve" font-weight="bold" text-anchor="middle" x="206" y="250">CreateEvent</text>
	<line stroke="black" stroke-opacity="1" x1="154" y1="262" x2="258" y2="262" />
	<line stroke="black" stroke-opacity="1" x1="154" y1="270" x2="258" y2="270" />
</g>
<g>
	<line stroke="black" stroke-opacity="1" x1="218" y1="234" x2="272" y2="111" />
	<line stroke="black" stroke-opacity="1" x1="275" y1="106" x2="267" y2="109" />
	<line stroke="black" stroke-opacity="1" x1="275" y1="106" x2="278" y2="113" />
	<line stroke="black" stroke-opacity="1" x1="267" y1="109" x2="278" y2="113" />
</g>
</svg>
